inDegrees=no
num_controls=7
num_derivatives=13
num_iterations=76
num_multipliers=7
num_parameters=0
num_slacks=7
num_states=26
objective=0.445081
objective_accelerations=0.058449
objective_balance=0.002910
objective_effort=0.022381
objective_height=0.355920
objective_ligament=0.005421
solver_duration=1098.121552
status=Solve_Succeeded
success=true
DataType=double
version=3
OpenSimVersion=4.5
endheader
time	/jointset/ground_pelvis/pelvis_tilt/value	/jointset/ground_pelvis/pelvis_tx/value	/jointset/ground_pelvis/pelvis_ty/value	/jointset/hip_l/hip_flexion_l/value	/jointset/hip_l/hip_adduction_l/value	/jointset/hip_l/hip_rotation_l/value	/jointset/back/lumbar_extension/value	/jointset/patellofemoral_l/patellar_flexion_l/value	/jointset/knee_l/knee_flexion_l/value	/jointset/knee_l/knee_adduction_l/value	/jointset/knee_l/knee_rotation_l/value	/jointset/ankle_l/ankle_angle_l/value	/jointset/subtalar_l/subtalar_angle_l/value	/jointset/ground_pelvis/pelvis_tilt/speed	/jointset/ground_pelvis/pelvis_tx/speed	/jointset/ground_pelvis/pelvis_ty/speed	/jointset/hip_l/hip_flexion_l/speed	/jointset/hip_l/hip_adduction_l/speed	/jointset/hip_l/hip_rotation_l/speed	/jointset/back/lumbar_extension/speed	/jointset/patellofemoral_l/patellar_flexion_l/speed	/jointset/knee_l/knee_flexion_l/speed	/jointset/knee_l/knee_adduction_l/speed	/jointset/knee_l/knee_rotation_l/speed	/jointset/ankle_l/ankle_angle_l/speed	/jointset/subtalar_l/subtalar_angle_l/speed	/forceset/tau_hip_flexion_l	/forceset/tau_hip_adduction_l	/forceset/tau_hip_rotation_l	/forceset/tau_knee_flexion_l	/forceset/tau_ankle_angle_l	/forceset/tau_subtalar_angle_l	/forceset/tau_lumbar_extension	lambda_cid13_p0	lambda_cid13_p1	lambda_cid13_p2	lambda_cid13_p3	lambda_cid13_p4	lambda_cid13_p5	lambda_cid14_p0	/jointset/ground_pelvis/pelvis_tilt/accel	/jointset/ground_pelvis/pelvis_tx/accel	/jointset/ground_pelvis/pelvis_ty/accel	/jointset/hip_l/hip_flexion_l/accel	/jointset/hip_l/hip_adduction_l/accel	/jointset/hip_l/hip_rotation_l/accel	/jointset/back/lumbar_extension/accel	/jointset/patellofemoral_l/patellar_flexion_l/accel	/jointset/knee_l/knee_flexion_l/accel	/jointset/knee_l/knee_adduction_l/accel	/jointset/knee_l/knee_rotation_l/accel	/jointset/ankle_l/ankle_angle_l/accel	/jointset/subtalar_l/subtalar_angle_l/accel	gamma_cid13_p0	gamma_cid13_p1	gamma_cid13_p2	gamma_cid13_p3	gamma_cid13_p4	gamma_cid13_p5	gamma_cid14_p0
0	-0.03904069106016055	0.06869943126578425	0.8959313185483258	0.1955287580552426	-0.3222103186083886	-0.4793215905873043	-0.1379045077516729	0.0701528807908415	0.07015288079084844	-0.1745324096330627	-0.1139913329616002	-0.06701059314715049	0.003554504698954133	0	0	0	0	0	0	0	0	0	0	0	0	0	0.1082835142717029	-0.1057934001250003	-0.03084031505778788	-0.244562283518138	0.2113779953963966	-0.0140570564690064	-0.05185928963553867	32.47321984652168	-2.13515851557599	2.922124759030405	-8.277071171482206	-514.1418161892517	-81.38767180399964	-39.81374563689143	-4.013715102444961	-1.624242834368579	-0.9623175804265147	12.17908891842416	-2.254828393341813	3.540094926735427	-2.95376757172233	10.96370322868951	10.9637032286717	0.7327794179254563	-0.8702721524635072	3.019436881057718	-0.8300264239929778	-5.864643469071008e-08	7.113474862840175e-08	2.56090447025043e-07	4.702951068821382e-09	-6.278418095020049e-09	-1.475472114675597e-07	-2.971323737324334e-08
0.01	-0.03923063809629012	0.06861891251462013	0.895884773608231	0.1961167516428905	-0.3223202859400653	-0.4791441369856016	-0.1380563915626802	0.07068462154750078	0.07068462154749443	-0.1744976536551945	-0.1140282997043638	-0.06686575851175379	0.003512647308829781	-0.03773445502351817	-0.01607555054393172	-0.009265426454301187	0.1170274745308117	-0.0217843571339986	0.03530188764104623	-0.02995029628807232	0.1057648207387816	0.1057648207387401	0.0070895172096358	-0.007351575509410152	0.02875471895626696	-0.008260166642271589	0.09907541131132473	-0.09837659718238594	-0.02872884744753766	-0.2297977356973521	0.1917216145573926	-0.01152645734269106	-0.0444909787589003	26.19485546133158	-2.380026207825134	3.24115399801869	-4.364171490467481	-515.3676407546584	-81.82766769031554	-39.8244876407498	-3.615083741748711	-1.594980270034078	-0.9021221989440608	11.37887425294281	-2.10891657646889	3.496874095818875	-2.951690770453637	10.29537785134908	10.29537785135404	0.71783079370418	-0.6612986928162454	2.77165734905625	-0.8073558315280673	-8.712463271070603e-08	1.602731258985252e-07	2.708408853109661e-07	5.612688029387844e-08	-2.543597442827788e-07	-1.519786809519382e-07	-1.921321271393446e-08
0.02	-0.03979028429053406	0.06837848443689169	0.8957468809993906	0.1978578794823041	-0.3226418322836896	-0.4786193368248572	-0.1384949843591996	0.0722565117824379	0.07225651178243665	-0.174387843920892	-0.1141375218908778	-0.0664397430975646	0.003391519442845939	-0.07393983162476955	-0.03198186531286924	-0.01826953374910753	0.2306268503629828	-0.04231580238960672	0.06946931180326933	-0.05734179710032536	0.2080298956726214	0.2080298956726236	0.0150107512681291	-0.01445108872427031	0.0562361557583363	-0.01585409517189635	0.0898673083501916	-0.09095979423973033	-0.0266173798367803	-0.2150331878770484	0.1720652337182369	-0.008995858216419666	-0.03712266788277799	19.9843676428139	-2.63642787405914	3.561622707928626	-0.6390490506104255	-515.6159446296363	-82.0905714902411	-39.85597797207537	-3.70789941799181	-1.59039567936958	-0.9100537485275565	11.49346917869599	-2.004246017663805	3.3132022309708	-2.442008476558576	10.26375406770113	10.26375406770036	0.8991227876967502	-0.819859693553478	2.764780450218341	-0.696778801463627	-1.15602830730702e-07	2.494115031686486e-07	2.855913235968892e-07	1.075508095189355e-07	-5.024410704705375e-07	-1.564101504363167e-07	-8.713188054625585e-09
0.03	-0.04070616903008877	0.06798050644953114	0.8955197260971707	0.20071988716498	-0.3231635864645561	-0.4777581728573331	-0.1391967273974618	0.0748357929454507	0.07483579294541504	-0.1741964184334664	-0.11431686140129	-0.06574377471868907	0.003197326875668228	-0.1090935774648481	-0.04751547877786675	-0.02716012137017748	0.3412739237563518	-0.06194133691371206	0.1026169778200212	-0.08285689045675804	0.3073826874121643	0.3073826874121813	0.02320059237898884	-0.02137661751510933	0.08286265125386269	-0.02293631033795054	0.08773119642348724	-0.09098170321130156	-0.02641510644828674	-0.214807458636676	0.1717108514384461	-0.007757114302675689	-0.03519994587808785	19.95174842539951	-3.13697563954884	3.605183250750006	-1.272439754441442	-515.4667333288447	-82.69066533857952	-39.90676044723392	-3.397595014403711	-1.520084454547451	-0.8784639607647255	10.77518996939211	-1.927716506786339	3.293540049332476	-2.58377175122065	9.704495999696515	9.70449599969827	0.7679278075858448	-0.6228406648738734	2.597353187581023	-0.7067980028987366	-1.462123386741957e-07	2.497275385346584e-07	3.601638247400728e-07	1.316283910964764e-07	-6.682874401617153e-07	-2.117235272951406e-07	-1.586862142250651e-08
0.04	-0.04196928779751546	0.06743014427262436	0.8952036847803668	0.2046733382915695	-0.3238787978580671	-0.4765699339771979	-0.1401491237664887	0.07839529288037272	0.07839529288037408	-0.1739252919280244	-0.1145642444382513	-0.06478438756718605	0.002933741131085516	-0.1433866372004996	-0.06245870322211768	-0.03604681666585789	0.448915539139093	-0.08100724491791955	0.1348842943289777	-0.1074724632546134	0.4040736500563372	0.4040736500563383	0.03095095488206058	-0.02805979402693566	0.1089199102838432	-0.02973273065290055	0.08559508449719387	-0.09100361218287149	-0.02621283305947361	-0.2145817293960984	0.1713564691587553	-0.006518370388879937	-0.03327722387315324	19.98065890912736	-3.648817482304982	3.65113955830426	-2.076568406269713	-514.4290061107381	-83.12709403347496	-39.97519784349166	-3.535762197106592	-1.472317875220128	-0.9092752834496517	10.89237757657041	-1.892320713684255	3.137132329411731	-2.262104364843215	9.731388248627097	9.731388248620174	0.8112270661390807	-0.7713892377509056	2.6509331571093	-0.6396198312427475	-1.768657911521946e-07	2.482121854077999e-07	4.359697704782515e-07	1.551421304544809e-07	-8.324382437395616e-07	-2.680860156462212e-07	-2.338808485280372e-08
0.05	-0.04357146645352517	0.06673341720399005	0.894798594534116	0.2096888620696374	-0.324781452424109	-0.4750638349899801	-0.1413410755770977	0.08290860528798326	0.08290860528798488	-0.1735781555345469	-0.1148776677771813	-0.06356703851871814	0.002604188575232846	-0.1768760234175308	-0.07677357076086813	-0.04497996619489568	0.553625831534286	-0.09938496545517982	0.1661945860770211	-0.130632902957485	0.4980777453858387	0.4980777453858373	0.03844563563129422	-0.03454913273613129	0.134446699687018	-0.03608707946477208	0.08115061911702655	-0.08596988657925844	-0.02556959872253162	-0.2116373274046812	0.1689130699085925	-0.00782594226428142	-0.0295412561979007	19.22263403018163	-3.050675883293756	3.672814896892358	-2.124937343710965	-513.785311989213	-80.91156043413831	-40.05925376011078	-3.229579109575094	-1.394069012840398	-0.8868126433497415	10.17582083783189	-1.789769138046362	3.1067822740482	-2.300264386769483	9.15826200151267	9.158262001517024	0.7140793020387416	-0.5762906101034427	2.488068760543567	-0.6198251084474075	-1.972890975839639e-07	2.557637471052112e-07	4.758341523917603e-07	1.771663624961937e-07	-9.498668022888893e-07	-2.970035347311707e-07	-2.564655036530067e-08
0.06	-0.04550334942681278	0.06589694189604108	0.8943038772214316	0.2157345819250237	-0.3258637384783844	-0.4732488721499714	-0.1427560819074871	0.08834662701416356	0.08834662701416632	-0.1731569741890311	-0.115253701387732	-0.06209751819049382	0.002213795990803887	-0.2093275006575432	-0.09040835108505475	-0.05397222995260103	0.6549547546030082	-0.1169335425644216	0.1966570648869669	-0.152083367210791	0.5890155137713801	0.5890155137714265	0.04575994528945625	-0.04058184834930736	0.1593541662350748	-0.04190073636816512	0.07670615373679147	-0.08093616097563887	-0.02492636438555288	-0.2086929254132925	0.1664696706584236	-0.009133514139679572	-0.02580528852270556	18.52045155307293	-2.460044469851197	3.693098113382522	-2.329725734885285	-512.3455853745312	-78.54263082508739	-40.15653059964679	-3.328180401702999	-1.33630043230724	-0.9210981291831669	10.21610371127624	-1.726492028080571	2.967569741792206	-1.920109274930197	9.118122859835045	9.118122859838197	0.7751528479247182	-0.6800646185469575	2.527068586085825	-0.5314814495469991	-2.17281661024313e-07	2.636970736373285e-07	5.141852053021251e-07	1.991278784403783e-07	-1.065328108415963e-06	-3.247654761628093e-07	-2.76835001759955e-08
0.07000000000000001	-0.04775532331424929	0.06492729510280804	0.8937186407802183	0.2227788068685021	-0.3271175710688755	-0.4711338336921737	-0.144377122634432	0.09468049950899228	0.09468049950900052	-0.1726633994607664	-0.1156887637835428	-0.06038156074663932	0.001767988246424275	-0.2408853888511543	-0.1034256214115997	-0.06310224494621437	0.7533758261545621	-0.1337043452023151	0.2262090074819062	-0.1719344536848658	0.6773068502192759	0.6773068502192851	0.05291077392742376	-0.04637939809586687	0.1837338477423372	-0.04718231981637092	0.07246454533390641	-0.07717838022793322	-0.02431102650519465	-0.2065771720288258	0.1639719562722897	-0.009471904528263776	-0.02237846460989171	17.82494192850392	-2.253468806524801	3.731172639905656	-2.399246494905965	-510.9490240921775	-77.08760266755532	-40.26433579688283	-3.042321034977659	-1.270092318228727	-0.9132456480332222	9.577919003538254	-1.633164623083777	2.927694671343287	-1.989059659883513	8.616824352431548	8.61682435242424	0.6785190379839833	-0.5218488279276265	2.377891876467279	-0.5148216659589672	-2.239344877056554e-07	2.221979201744442e-07	5.321239165784823e-07	2.016816071898935e-07	-1.113998098309536e-06	-3.453293504006863e-07	-3.222651394904356e-08
